<svg id="Calque_1" data-name="Calque 1" xmlns="http://www.w3.org/2000/svg" viewBox="0 0 130 130"><defs><style>.cls-1{fill:#fff;}</style></defs><circle class="cls-1" cx="65" cy="39.01" r="16.58"/><circle class="cls-1" cx="98.54" cy="45.11" r="10.48"/><circle class="cls-1" cx="31.46" cy="45.11" r="10.48"/><path class="cls-1" d="M41.78,65c-4.12-3.38-7.86-2.93-12.63-2.93A12.91,12.91,0,0,0,16.21,74.93V95.75a5.59,5.59,0,0,0,5.6,5.58c13.35,0,11.74.24,11.74-.57C33.55,86,31.8,75.19,41.78,65Z"/><path class="cls-1" d="M69.54,62.15c-8.34-.7-15.58,0-21.83,5.16C37.26,75.69,39.27,87,39.27,100.76a6.68,6.68,0,0,0,6.67,6.67c40.24,0,41.84,1.3,44.22-4,.78-1.79.57-1.22.57-18.31,0-13.58-11.75-23-21.19-23Z"/><path class="cls-1" d="M100.85,62.07c-4.8,0-8.51-.44-12.63,2.93,9.9,10.12,8.23,20.19,8.23,35.76,0,.82-1.34.57,11.54.57a5.79,5.79,0,0,0,5.8-5.78V74.93A12.91,12.91,0,0,0,100.85,62.07Z"/></svg>