<svg id="Calque_1" data-name="Calque 1" xmlns="http://www.w3.org/2000/svg" viewBox="0 0 130 130"><defs><style>.cls-1{fill:#fff;}</style></defs><circle class="cls-1" cx="49.16" cy="103.46" r="11.31"/><path class="cls-1" d="M118.85,29.7a2.36,2.36,0,0,0-1.81-.9h-86L28.8,17a3,3,0,0,0-2.26-1.81H13a2.14,2.14,0,0,0-2.26,2.27A2.14,2.14,0,0,0,13,19.75H24.73L35.59,75A16.44,16.44,0,0,0,51.43,87.63h52a2.27,2.27,0,1,0,0-4.53h-52a10.44,10.44,0,0,1-9.05-5l66.07-9.05a1.94,1.94,0,0,0,1.81-1.81l9-36.2A2.26,2.26,0,0,0,118.85,29.7Z"/><circle class="cls-1" cx="94.41" cy="103.46" r="11.31"/></svg>