<svg id="Calque_1" data-name="Calque 1" xmlns="http://www.w3.org/2000/svg" viewBox="0 0 15 15"><defs><style>.cls-1{fill:#e0001a;}</style></defs><path class="cls-1" d="M14.17,12.41,12.9,11.15a1.23,1.23,0,0,0-1.74,1.73l1.25,1.25a2.73,2.73,0,0,1-2.8-.65,2.51,2.51,0,0,1-.8-2.54L7.48,9.69,6.12,11.06a3.1,3.1,0,0,1-.74,2.49,2.68,2.68,0,0,1-2.77.62L3.87,12.9a1.23,1.23,0,0,0-1.73-1.75L.88,12.41A2.77,2.77,0,0,1,1.53,9.6a2.54,2.54,0,0,1,2.55-.79L5.32,7.49l-.57-.6-.82-.84a2.58,2.58,0,0,1-2.45-.68A2.7,2.7,0,0,1,.84,2.6L2.11,3.87A1.19,1.19,0,0,0,3.79,2.18L2.54.89a2.71,2.71,0,0,1,2.79.61A3.08,3.08,0,0,1,6.09,4l1.4,1.38.63-.6L9,3.93a2.53,2.53,0,0,1,.68-2.45A2.69,2.69,0,0,1,12.41.83L11.14,2.11a1.2,1.2,0,0,0,1.7,1.68l1.29-1.25a2.73,2.73,0,0,1-.62,2.79A3.1,3.1,0,0,1,11,6.09L9.65,7.5l1.41,1.4a3.12,3.12,0,0,1,2.5.73A2.71,2.71,0,0,1,14.17,12.41Z"/></svg>