<svg id="Calque_1" data-name="Calque 1" xmlns="http://www.w3.org/2000/svg" viewBox="0 0 130 130"><defs><style>.cls-1{fill:#fff;}</style></defs><path class="cls-1" d="M119.39,105.05,109,94.71c-3.68-3.66-9.94-3.38-13.74.44s-4.14,10-.47,13.67L105,119.08a22.55,22.55,0,0,1-22.89-5.29c-5.57-5.56-8.84-12.92-6.49-20.79L64.76,82.8,53.67,94c.67,6.15-.42,14.75-6,20.34A22.07,22.07,0,0,1,25,119.39L35.3,109C39,105.3,38.68,99,34.87,95.24s-10-4.14-13.67-.47L10.93,105A22.55,22.55,0,0,1,16.22,82.1c5.56-5.57,12.92-8.84,20.79-6.49L47.14,64.85,42.5,60l-6.66-6.89a20.83,20.83,0,0,1-20-5.57A21.93,21.93,0,0,1,10.55,25L20.94,35.36A9.75,9.75,0,0,0,34.68,21.53L24.5,11a22.13,22.13,0,0,1,22.73,5c5.59,5.56,6.89,14,6.23,20.14l11.39,11.3L70,42.5l6.89-6.66a20.82,20.82,0,0,1,5.56-20A21.93,21.93,0,0,1,105,10.55L94.65,20.94a9.75,9.75,0,0,0,13.83,13.74L119,24.5a22.17,22.17,0,0,1-5,22.73c-5.57,5.59-14,6.89-20.15,6.23L82.48,64.94,94,76.35c6.15-.67,14.75.41,20.34,6A22.09,22.09,0,0,1,119.39,105.05Z"/></svg>