<svg id="Calque_1" data-name="Calque 1" xmlns="http://www.w3.org/2000/svg" viewBox="0 0 130 130"><defs><style>.cls-1{fill:#fff;}</style></defs><circle class="cls-1" cx="20.1" cy="41.06" r="6.44"/><path class="cls-1" d="M111.4,46H43.89a4.95,4.95,0,0,1,0-9.89H111.4a4.95,4.95,0,0,1,0,9.89Z"/><circle class="cls-1" cx="20.1" cy="65" r="6.44"/><path class="cls-1" d="M111.4,69.94H43.89a4.94,4.94,0,0,1,0-9.88H111.4a4.94,4.94,0,0,1,0,9.88Z"/><circle class="cls-1" cx="20.1" cy="88.94" r="6.44"/><path class="cls-1" d="M111.4,93.88H43.89a4.95,4.95,0,0,1,0-9.89H111.4a4.95,4.95,0,0,1,0,9.89Z"/></svg>