<svg xmlns="http://www.w3.org/2000/svg" viewBox="0 0 200 200"><defs><style>.cls-1{isolation:isolate;}.cls-2{fill:#df001b;}.cls-3,.cls-4{fill:#4e4e4e;mix-blend-mode:multiply;}.cls-3{opacity:0.1;}.cls-4{opacity:0.3;}.cls-5{fill:#fff;}</style></defs><g class="cls-1"><g id="Calque_1" data-name="Calque 1"><rect class="cls-2" width="200" height="200.01"/><path class="cls-3" d="M27.58,200c39.07-33.72,101-57.19,172.42-62.33V114.6C115.86,116.13,42.36,143,0,182.88V200Z"/><path class="cls-4" d="M200,200V137.67C128.62,142.81,66.65,166.28,27.58,200Z"/><path class="cls-5" d="M18.26,18.26h16.1v18l13.69-18h18.7L50,39.17,67.1,66.41H47.91L38.49,51.13l-4.13,5V66.41H18.26Z"/><path class="cls-5" d="M68.48,18.26h41.06V31.47H84.29v4.88h23.53V48H84.29V53.2h25.6V66.41H68.48Z"/><path class="cls-5" d="M128.53,49.35,110.37,18.26h18l8.26,15.82L145,18.26h17.82L144.62,49.14V66.41H128.53Z"/><path class="cls-5" d="M188,92.37H172.8a10.1,10.1,0,0,1,0-20.18h15.14a22.6,22.6,0,0,0-39.56-1.9H0v24H148.37A22.63,22.63,0,0,0,188,92.37Z"/><path class="cls-2" d="M18.26,73.43h6.68c3.9,0,6.25,2.31,6.25,5.65v0c0,3.78-2.94,5.75-6.6,5.75H21.86v4.89h-3.6Zm6.45,8.23c1.79,0,2.84-1.06,2.84-2.47v0c0-1.61-1.12-2.47-2.91-2.47H21.86v5Z"/><path class="cls-2" d="M33.86,73.43h7.46a6.5,6.5,0,0,1,4.77,1.66,5.1,5.1,0,0,1,1.4,3.73v0A5.08,5.08,0,0,1,44,83.93l4,5.83h-4.2l-3.5-5.22H37.45v5.22H33.86Zm7.23,7.93c1.75,0,2.75-.93,2.75-2.31v0c0-1.55-1.07-2.34-2.82-2.34H37.45v4.69Z"/><path class="cls-2" d="M50.9,73.43h3.59V89.76H50.9Z"/><path class="cls-2" d="M57.17,73.43h4l4.28,11.5,4.26-11.5h3.88L67,89.88H63.78Z"/><path class="cls-2" d="M76.24,73.43h3.6V89.76h-3.6Z"/><path class="cls-2" d="M83.93,73.43h3.59V86.49h8.15v3.27H83.93Z"/><path class="cls-2" d="M98.37,73.43H110.7v3.19H102v3.32h7.7v3.2H102v3.43h8.87v3.19H98.37Z"/><path class="cls-2" d="M113.29,81.64v0a8.39,8.39,0,0,1,8.57-8.45,9,9,0,0,1,6.42,2.25L126,78.12a6,6,0,0,0-4.27-1.66,4.91,4.91,0,0,0-4.69,5.09v0a4.89,4.89,0,0,0,5,5.19,5.74,5.74,0,0,0,3.38-1V83.46h-3.62v-3.1h7.1v7.1a10.62,10.62,0,0,1-7,2.58A8.17,8.17,0,0,1,113.29,81.64Z"/><path class="cls-2" d="M132.32,73.43h12.32v3.19h-8.75v3.32h7.7v3.2h-7.7v3.43h8.87v3.19H132.32Z"/></g></g></svg>