<svg id="Calque_1" data-name="Calque 1" xmlns="http://www.w3.org/2000/svg" viewBox="0 0 450.14 108.81"><defs><style>.cls-1{fill:#fff;}</style></defs><path class="cls-1" d="M207.65,20.72,219,49.91h-3l-3.28-8.77H199.86l-3.49,8.77H193.5l11.89-29.19Zm4.14,18.12-5.42-14.39L200.8,38.84Z"/><path class="cls-1" d="M221.63,20.72h2.79V47.37h16.11v2.54h-18.9Z"/><path class="cls-1" d="M236.64,20.72h21.08v2.54h-9.14V49.91h-2.79V23.26h-9.15Z"/><path class="cls-1" d="M260.43,20.72h19.1v2.54H263.21V33.59h14.72v2.55H263.21V47.37h17.18v2.54h-20Z"/><path class="cls-1" d="M284.33,20.72h12.92c6,0,8.52,4,8.52,8.12,0,5-3.27,7.62-8.56,8l9.34,13.08H303L293.76,37h-6.64V49.91h-2.79Zm2.79,13.69h8.65c5.9,0,7.22-3,7.22-5.57,0-3.41-1.81-5.58-6.77-5.58h-9.1Z"/><path class="cls-1" d="M309.59,20.72h2.75L329,45.24h.08V20.72h2.79V49.91h-2.75L312.46,25.39h-.08V49.91h-2.79Z"/><path class="cls-1" d="M348.71,20.72,360,49.91h-3l-3.28-8.77H340.92l-3.49,8.77h-2.86l11.89-29.19Zm4.14,18.12-5.41-14.39-5.58,14.39Z"/><path class="cls-1" d="M356.83,20.72h21.08v2.54h-9.15V49.91H366V23.26h-9.15Z"/><path class="cls-1" d="M381.11,20.72h2.79V49.91h-2.79Z"/><path class="cls-1" d="M386.64,20.72h3l9.14,24.76,9.31-24.76H411L400,49.91h-2.46Z"/><path class="cls-1" d="M413.21,20.72h19.11v2.54H416V33.59h14.72v2.55H416V47.37h17.18v2.54h-20Z"/><path class="cls-1" d="M202,63.63h7.54l11,29.2h-7.83l-1.48-4.6H200.49L199,92.83h-7.79Zm7.5,19.19-3.61-12h-.08l-3.61,12Z"/><path class="cls-1" d="M247.23,82.66c0,8-6.76,11-12.38,11s-12.34-3-12.34-11v-19h7.3V82c0,3.28,1.27,5.7,5,5.7s5.09-2.42,5.09-5.7V63.63h7.29Z"/><path class="cls-1" d="M249.53,63.63h22.56v5.66h-7.63V92.83h-7.3V69.29h-7.63Z"/><path class="cls-1" d="M287.87,93.65c-9.3,0-14.76-7.22-14.76-15.42s5.46-15.42,14.76-15.42S302.63,70,302.63,78.23,297.18,93.65,287.87,93.65Zm0-24.69c-4.26,0-7.46,2.71-7.46,9.27,0,4.26,1.72,9.27,7.46,9.27,5.41,0,7.47-4.76,7.47-9.27S293.28,69,287.87,69Z"/><path class="cls-1" d="M306,63.63h14.47c7.87,0,10.78,4.1,10.78,9.89,0,3.89-2.17,9.88-12.17,9.88h-5.7v9.43H306ZM313.3,78h6.15c3.32,0,4.51-2.17,4.51-4.42,0-2.91-1.4-4.51-4.72-4.51H313.3Z"/><path class="cls-1" d="M339.67,63.63h7.54l11,29.2h-7.83l-1.48-4.6H338.15l-1.48,4.6h-7.79Zm7.5,19.19-3.61-12h-.08l-3.61,12Z"/><path class="cls-1" d="M360.17,63.63h14.59c6.57,0,10.58,3,10.58,9.6a8.06,8.06,0,0,1-6,7.87L386,92.83h-8.16l-5.74-10.5h-4.63v10.5h-7.3Zm7.3,13.29h6.68c2.34,0,3.9-1.23,3.9-3.94s-1.56-3.89-3.9-3.93h-6.68Z"/><path class="cls-1" d="M385.68,63.63h22.55v5.66h-7.62V92.83h-7.3V69.29h-7.63Z"/><path class="cls-1" d="M413.36,84.09c2.54,2.3,5,3.65,8.45,3.65,1.92,0,5.45-.82,5.45-3.36,0-1.48-1.11-2.21-3.28-2.58l-6.07-1c-5.41-.86-8.36-3.73-8.36-8,0-7,5.7-10,11.93-10a17.31,17.31,0,0,1,12.87,5.62l-5.53,4A10.08,10.08,0,0,0,421,68.72c-1.68,0-4.15,1.06-4.15,3,0,1.56,1.28,2.34,4.06,2.79l2.79.45c5.82.94,10.62,2.75,10.62,8.32,0,8.78-7.91,10.42-13.37,10.42a16.71,16.71,0,0,1-13.16-6Z"/><rect class="cls-1" x="174.69" y="11.31" width="1.48" height="97.68"/><polygon class="cls-1" points="158.75 93.65 148.95 76.67 138.99 59.42 133.98 50.73 109.2 7.82 87.27 45.8 65.34 7.82 40.56 50.73 35.55 59.42 25.59 76.67 15.79 93.65 33.68 93.65 36.92 88.04 59.64 88.04 69.45 71.06 46.72 71.06 53.44 59.42 65.34 38.81 77.24 59.42 78.32 61.29 69.45 76.67 59.64 93.65 59.66 93.65 65.34 93.65 77.53 93.65 77.55 93.65 87.27 76.82 96.99 93.65 97.01 93.65 109.2 93.65 114.88 93.65 114.9 93.65 105.09 76.67 96.22 61.29 97.3 59.42 109.2 38.81 121.1 59.42 127.82 71.06 105.09 71.06 114.9 88.04 137.62 88.04 140.86 93.65 158.75 93.65"/></svg>