<svg id="Calque_1" data-name="Calque 1" xmlns="http://www.w3.org/2000/svg" viewBox="0 0 170 170"><defs><style>.cls-1{fill:#fff;}</style></defs><path class="cls-1" d="M17.13,109.49l7.5,19.36h-2L20.47,123H12l-2.31,5.82H7.74l7.89-19.36Zm2.74,12L16.28,112l-3.7,9.55Z"/><path class="cls-1" d="M26.39,109.49h1.85v17.67H38.93v1.69H26.39Z"/><path class="cls-1" d="M36.35,109.49h14v1.68H44.26v17.68H42.41V111.17H36.35Z"/><path class="cls-1" d="M52.12,109.49H64.79v1.68H54V118h9.77v1.68H54v7.45h11.4v1.69H52.12Z"/><path class="cls-1" d="M68,109.49h8.57c4,0,5.65,2.66,5.65,5.38,0,3.32-2.17,5.06-5.68,5.3l6.2,8.68H80.36l-6.14-8.6H69.81v8.6H68Zm1.85,9.08h5.74c3.92,0,4.79-2,4.79-3.7,0-2.26-1.2-3.7-4.49-3.7h-6Z"/><path class="cls-1" d="M84.71,109.49h1.82L97.6,125.75h.05V109.49H99.5v19.36H97.68L86.61,112.59h0v16.26H84.71Z"/><path class="cls-1" d="M110.65,109.49l7.5,19.36h-2L114,123h-8.51l-2.31,5.82h-1.91l7.89-19.36Zm2.74,12L109.8,112l-3.7,9.55Z"/><path class="cls-1" d="M116,109.49h14v1.68h-6.06v17.68h-1.85V111.17H116Z"/><path class="cls-1" d="M132.12,109.49H134v19.36h-1.85Z"/><path class="cls-1" d="M135.79,109.49h2l6.07,16.42L150,109.49h1.9l-7.26,19.36H143Z"/><path class="cls-1" d="M153.41,109.49h12.67v1.68H155.25V118H165v1.68h-9.77v7.45h11.4v1.69H153.41Z"/><path class="cls-1" d="M10.5,137.94h5l7.31,19.36H17.63l-1-3.05H9.5l-1,3.05H3.35Zm5,12.72-2.39-8H13l-2.39,8Z"/><path class="cls-1" d="M40.49,150.55c0,5.31-4.49,7.29-8.21,7.29s-8.19-2-8.19-7.29V137.94h4.84v12.21c0,2.17.85,3.78,3.35,3.78s3.37-1.61,3.37-3.78V137.94h4.84Z"/><path class="cls-1" d="M42,137.94H57v3.75H51.91V157.3H47.07V141.69H42Z"/><path class="cls-1" d="M67.43,157.84c-6.17,0-9.79-4.78-9.79-10.22s3.62-10.23,9.79-10.23,9.79,4.79,9.79,10.23S73.6,157.84,67.43,157.84Zm0-16.37c-2.83,0-5,1.8-5,6.15,0,2.83,1.14,6.14,5,6.14,3.59,0,4.95-3.15,4.95-6.14S71,141.47,67.43,141.47Z"/><path class="cls-1" d="M79.44,137.94H89c5.22,0,7.15,2.72,7.15,6.55,0,2.58-1.44,6.55-8.07,6.55H84.34v6.26h-4.9Zm4.84,9.51h4.08a2.72,2.72,0,0,0,3-2.93c0-1.93-.92-3-3.12-3h-4Z"/><path class="cls-1" d="M101.76,137.94h5l7.31,19.36h-5.19l-1-3.05h-7.15l-1,3.05H94.61Zm5,12.72-2.39-8h-.06l-2.39,8Z"/><path class="cls-1" d="M115.35,137.94H125c4.35,0,7,2,7,6.36a5.35,5.35,0,0,1-4,5.22l4.44,7.78h-5.42l-3.8-7h-3.08v7h-4.84Zm4.84,8.81h4.44a2.61,2.61,0,0,0,0-5.22h-4.44Z"/><path class="cls-1" d="M132.27,137.94h14.95v3.75h-5.05V157.3h-4.84V141.69h-5.06Z"/><path class="cls-1" d="M150.62,151.51a7.85,7.85,0,0,0,5.6,2.42c1.28,0,3.62-.55,3.62-2.23,0-1-.74-1.47-2.18-1.72l-4-.65c-3.59-.57-5.55-2.47-5.55-5.33,0-4.68,3.78-6.61,7.91-6.61a11.5,11.5,0,0,1,8.54,3.73l-3.67,2.64a6.68,6.68,0,0,0-5.19-2.45c-1.12,0-2.75.71-2.75,2,0,1,.84,1.55,2.69,1.85l1.85.29c3.86.63,7,1.83,7,5.53,0,5.81-5.25,6.9-8.86,6.9a11.09,11.09,0,0,1-8.73-3.94Z"/><rect class="cls-1" x="3.93" y="99.34" width="160.22" height="0.99"/><polygon class="cls-1" points="155.53 88.91 145.72 71.92 135.76 54.67 130.75 45.99 105.97 3.07 84.04 41.05 62.11 3.07 37.33 45.99 32.32 54.67 22.36 71.92 12.55 88.91 30.45 88.91 33.69 83.3 56.41 83.3 66.22 66.31 43.49 66.31 50.21 54.67 62.11 34.06 74.01 54.67 75.09 56.55 66.22 71.92 56.41 88.91 56.43 88.91 62.11 88.91 74.3 88.91 74.32 88.91 84.04 72.07 93.76 88.91 93.78 88.91 105.97 88.91 111.65 88.91 111.67 88.91 101.86 71.92 92.99 56.55 94.07 54.67 105.97 34.06 117.87 54.67 124.59 66.31 101.86 66.31 111.67 83.3 134.39 83.3 137.63 88.91 155.53 88.91"/><path class="cls-1" d="M155.82,89.08H137.53l-.05-.09-3.19-5.52H111.57l0-.09-10-17.24h22.73L106,34.41,93.19,56.55,112,89.08H93.68L93.61,89,84,72.42,74.42,89.08H56.13l.13-.26L74.89,56.55,62.11,34.41,43.79,66.14H66.52l-.15.26L56.51,83.47H33.79l-3.24,5.61H12.26l.15-.26L62.11,2.73l.15.26L84,40.71,106,2.73l.15.26Zm-18.09-.35h17.5L106,3.42,84,41.4l-.15-.26L62.11,3.42,12.85,88.73h17.5l3.24-5.61H56.31l9.61-16.63H43.19l6.87-11.9,12-20.87.15.26,13,22.57-.05.08L56.71,88.73H74.22l9.82-17,.15.26,9.67,16.74h17.51L92.79,56.55l1.13-2,12-20.87.15.26,18.77,32.51H102.16l9.61,16.63h22.72l0,.09Z"/></svg>