<svg id="Calque_1" data-name="Calque 1" xmlns="http://www.w3.org/2000/svg" viewBox="0 0 130 130"><defs><style>.cls-1{fill:#fff;}</style></defs><path class="cls-1" d="M103.31,27.72V19.44H24.62v8.28l-8.29,29v4.74a11.53,11.53,0,0,0,6.21,10.09v39H39.11V77.43H55.68v33.13h49.7V72.39a11.58,11.58,0,0,0,8.29-10.93V56.72Zm-75.59,41a7.45,7.45,0,0,1-7.25-7.85H35A7.44,7.44,0,0,1,27.72,68.71Zm59-41,4.14,29H76.39l-2.07-29Zm4.14,33.14a7.27,7.27,0,1,1-14.5,0ZM46.36,68.71a7.45,7.45,0,0,1-7.25-7.85h14.5A7.44,7.44,0,0,1,46.36,68.71Zm7.25-12H39.11l4.14-29H55.68Zm4.14,4.14h14.5a7.27,7.27,0,1,1-14.5,0ZM97.1,102.28H64V77.43H97.1Zm5.18-33.57A7.45,7.45,0,0,1,95,60.86h14.5A7.46,7.46,0,0,1,102.28,68.71Z"/></svg>